<svg xmlns="http://www.w3.org/2000/svg" width="68" height="20"><g fill="#fff" fill-rule="evenodd"><path d="M35.96 14.669h-1.028c-.576 0-1.094-.499-1.094-1.076l-.004-12.42c0-.138-.104-.208-.231-.155L30.17 2.425a.405.405 0 00-.231.345v11.938c0 2.652 2.233 4 3.793 4h3.8c.299 0 .686-.144.503-.537l-1.495-3.023c-.076-.157-.237-.48-.58-.48M14.667 4.764c.072-.085.04-.155-.071-.155h-4.69a.5.5 0 00-.333.154l-4.541 5.319c-.072.084-.131.063-.131-.049V4.811a.203.203 0 00-.202-.202H1.2a.203.203 0 00-.201.202v13.55c0 .112.09.203.201.203h3.5a.203.203 0 00.202-.202V13.14c0-.112.059-.134.131-.05l4.541 5.32a.5.5 0 00.333.154h4.69c.11 0 .143-.07.071-.155l-5.599-6.668a.251.251 0 010-.31l5.6-6.667zm14.316 0c.071-.085.04-.155-.072-.155h-4.687a.5.5 0 00-.333.154l-4.541 5.319c-.072.084-.13.063-.13-.049V4.811a.203.203 0 00-.203-.202h-3.498a.204.204 0 00-.203.202v13.55c0 .112.092.203.203.203h3.498a.203.203 0 00.202-.202V13.14c0-.112.059-.134.131-.05l4.54 5.32a.5.5 0 00.334.154h4.687c.111 0 .143-.07.072-.155l-5.596-6.668a.251.251 0 010-.31l5.596-6.667zm26.052.317c.39-.315.81-.555 1.224-.74l-.001-3.168c0-.138-.105-.208-.231-.156l-3.433 1.408a.404.404 0 00-.231.345v4.58a164.85 164.85 0 012.672-2.269"/><path d="M59.571 4.429c-1.195 0-2.994.289-4.41 1.513s-9.432 8.157-9.487 8.2a3.13 3.13 0 01-1.947.676 3.154 3.154 0 01-3.15-3.16 3.154 3.154 0 013.15-3.158 3.15 3.15 0 012.92 1.973v-.001s.269.784.47 1.413c.84-.729 2.068-1.794 3.317-2.872-1.053-2.684-3.658-4.584-6.707-4.584-3.981 0-7.209 3.237-7.209 7.23 0 3.993 3.228 7.23 7.209 7.23a7.172 7.172 0 005.025-2.049l.004.012 8.708-7.728c.594-.473 1.297-.772 2.107-.772 1.82 0 3.297 1.48 3.297 3.307a3.302 3.302 0 01-3.297 3.306c-1.82 0-3.267-1.48-3.296-3.306l-.005-.447-3.438 3.013c1.032 2.726 3.659 4.664 6.74 4.664 3.98 0 7.208-3.237 7.208-7.23 0-3.993-3.227-7.23-7.209-7.23"/><path d="M52.306 14.685l-3.308 2.9.265.804s.098.353.492.353h3.381c.55 0 .344-.512.344-.512l-1.174-3.545z"/></g></svg>