<svg xmlns="http://www.w3.org/2000/svg" preserveAspectRatio="xMinYMid" viewBox="0 0 171.22 29.03"><path fill="#fff" d="M28.88 12.94l1.62-9.25h-5.17l-3.84 21.77h5.18l.77-4.4L30.33 18l4.76 7.46h6.33l-7.27-11.24 9.94-10.53h-6.52l-8.69 9.25zm-21.5 0l1.63-9.25H3.84L0 25.46h5.17l.78-4.4L8.84 18l4.76 7.46h6.33l-7.27-11.24L22.6 3.69h-6.52l-8.7 9.25z"/><path fill="#fff" d="M50.52 26.97c1.72-1.06 11-8.85 10-10.69-.63-1.15-2.9-.68-7.66.81-10.93 3.43.25-10.47 9.21-16a2.64 2.64 0 01.68-.28 14.52 14.52 0 00-12.23 26.16z"/><path fill="#fff" d="M66.71 2.89c-5.49 3.6-16.09 12.71-8.73 10.44 5.07-1.56 8.32-1.41 8.85.13.69 2-2.8 7.12-12.26 13-.74.46-1.52.91-2.31 1.34A14.52 14.52 0 0066.71 2.89zm14.93 18.56h3l-.64 4h-4.84c-2.71 0-4.59-1.81-4.23-4l3.13-17.79h5.55l-.34 2.38h4.25l-.68 4h-4.17l-2 10.7a.83.83 0 00.97.71zm5.88 4.01l2.45-15.52c.36-2.23 3.14-4 6.19-4h4.36l-.78 4h-3a1.36 1.36 0 00-1.31.92l-2.35 14.59h-5.56zm19.73-7.77l-.52 3.23a.84.84 0 001 .82h10l-.64 3.72h-11.12c-3 0-5.26-1.81-4.9-4l1.9-11.4c.36-2.23 3.12-4 6.17-4h5.59c3 0 5.28 1.82 4.92 4l-1.26 7.65h-11.14zm.64-4h5.63l.44-2.77a.88.88 0 00-1-1h-3.33a1.24 1.24 0 00-1.22.91zm31.73-3.65l-2.54 15.43h-11.13c-3 0-5.25-1.81-4.9-4l.7-4.62c.36-2.23 3.14-3.75 6.19-3.75h5.58l.43-2.24a.87.87 0 00-1-.9h-10l.6-4h11.13c3.07.08 5.3 1.84 4.94 4.08zm-6.75 6.81h-4.45a1.21 1.21 0 00-1.26.81l-.44 3a.84.84 0 001 .81h4.46zm8.26 8.61l2.88-19.42h22.21c3.08 0 5.32 1.84 5 4.1l-2.25 15.37h-5.58l2.12-14.54a.92.92 0 00-.94-1h-4.46l-2.26 15.52h-5.54l2.21-15.55h-5.58l-2.27 15.52h-5.54z"/></svg>