<svg xmlns="http://www.w3.org/2000/svg" id="圖層_1" data-name="圖層 1" viewBox="0 0 292.54 63"><defs><style>.cls-1{fill:#fff}</style></defs><path d="M76.27 73.47l29.38-29.39s1.87-2.08-1.78-2.08h-12.2a14 14 0 00-10.1 3.5L59.35 67.9V43.41A1.41 1.41 0 0058 42H43.33a1.41 1.41 0 00-1.4 1.41v60.18a1.41 1.41 0 001.4 1.41H58a1.41 1.41 0 001.4-1.41v-25L82.27 102a14 14 0 009.08 2.87h11.91c3.64 0 2.29-2.09 2.29-2.09zm67.81 0l29.38-29.39s1.87-2.08-1.78-2.08h-12.2a14 14 0 00-10.11 3.5l-21.76 21.96v-24a1.41 1.41 0 00-1.4-1.41h-14.62a1.41 1.41 0 00-1.41 1.41v60.18a1.42 1.42 0 001.41 1.41h14.62a1.41 1.41 0 001.4-1.41V79.05L150.08 102a13.93 13.93 0 009.07 2.87h11.91c3.64 0 2.3-2.09 2.3-2.09z" class="cls-1" transform="translate(-41.93 -42)"/><path d="M231.36 55.79a1.53 1.53 0 01-1.52 1.53h-17v46a1.55 1.55 0 01-1.57 1.52H196.4a1.56 1.56 0 01-1.57-1.52v-46h-21.08a1.54 1.54 0 01-1.53-1.53l11.31-12.07a4.07 4.07 0 012.47-1.53h43.82a1.53 1.53 0 011.52 1.53zm26.06 47.48a1.63 1.63 0 01-1.7 1.52h-14.33a1.62 1.62 0 01-1.7-1.52V43.78a1.62 1.62 0 011.7-1.53h14.33a1.63 1.63 0 011.7 1.53zm74.17 1.52h-12.37c-3 0-4.71-.08-7.59-2.81-.05 0-12.21-16-12.21-16s-12 16.24-12.09 16.28c-2.87 2.73-5.62 2.52-8.65 2.52h-10.56c-3.84 0-2.42-2.08-2.42-2.08l22.48-29.29-21.74-29.11s-1.87-2 2-2h11.07c4.91 0 5.41.24 7.8 3l12.14 16.12 11.21-15.93c2.38-2.76 2.81-3.19 7.66-3.19h12.39c3.84 0 1.88 2 1.88 2L311 73.42l23.35 29.1s1.07 2.27-2.76 2.27z" class="cls-1" transform="translate(-41.93 -42)"/></svg>