<svg xmlns="http://www.w3.org/2000/svg" preserveAspectRatio="xMinYMid" viewBox="0 0 117.73 33.68"><defs><clipPath id="a" transform="translate(-273.91 -609.91)"><path fill="#fff" d="M326.36 615.66a6.19 6.19 0 00-4.3 1.38l-11.33 10.84v-11.52c0-.44 0-.7-.42-.7h-5.49a.75.75 0 00-.82.7v24a1 1 0 00.82.92h5.49c.43 0 .42-.49.42-.92v-11.75L322.35 640a7.09 7.09 0 003.88 1.27h4.91c1.47 0 .93-1 .93-1l-12-12.13.06-.09 11.68-11.6s.76-.82-.72-.82h-4.66z"/></clipPath><clipPath id="b" transform="translate(-273.91 -609.91)"><path fill="#fff" d="M335.14 615.66a1 1 0 00-1.05.88v4a1.16 1.16 0 001 1h8.38v19a.69.69 0 00.74.71h6.24c.43 0 1.56-.28 1.56-.71v-19h7.66a1.5 1.5 0 001.32-1v-4a1.38 1.38 0 00-1.32-.88h-24.53z"/></clipPath></defs><path fill="#fff" d="M117.2 5.75h-6.23a1.4 1.4 0 00-1.11.85l-6.65 16.32-6.65-16.33a1.38 1.38 0 00-1.11-.84h-6.23a.56.56 0 00-.47.85l10.52 23.74a1.6 1.6 0 001.11 1h5.64a1.53 1.53 0 001.11-1l10.53-23.69a.63.63 0 00-.47-.94M15.88 18.27l.06-.09L27.62 6.57s.75-.81-.72-.81h-4.67A6 6 0 0018 7.14L6.74 17.97V6.45c0-.43-.12-.7-.55-.7H.69a.65.65 0 00-.69.7v24a.84.84 0 00.69.92h5.49a.75.75 0 00.56-.92V18.7l11.54 11.39a6.93 6.93 0 003.82 1.27H27c1.47 0 .93-.95.93-.95zM52.45 5.75a6.19 6.19 0 00-4.3 1.38L36.82 17.97V6.45c0-.44 0-.7-.42-.7h-5.49a.75.75 0 00-.82.7v24a1 1 0 00.82.92h5.49c.43 0 .42-.49.42-.92V18.7l11.62 11.39a7.09 7.09 0 003.88 1.27h4.91c1.47 0 .93-1 .93-1l-12-12.13.06-.09L57.9 6.54s.76-.82-.72-.82h-4.66z"/><g clip-path="url(#a)"><path fill="#fff" d="M26.94 33.45V0l34.45.23.01 33.45-34.46-.23z"/></g><path fill="#fff" d="M61.23 5.75a1 1 0 00-1.05.88v4a1.16 1.16 0 001 1h8.38v19a.69.69 0 00.74.71h6.24c.43 0 1.56-.28 1.56-.71v-19h7.66a1.5 1.5 0 001.32-1v-4a1.38 1.38 0 00-1.32-.88H61.23z"/><g clip-path="url(#b)"><path fill="#fff" d="M60.18 5.75h26.94v25.6H60.18z"/></g></svg>