<svg xmlns="http://www.w3.org/2000/svg" width="54" height="20"><path fill="#fff" fill-rule="evenodd" d="M32.162 7.965h-2.178V3.559a1.089 1.089 0 112.178 0v4.406zM31.073 1a3.348 3.348 0 00-3.347 3.349V18.67h2.258V9.434h2.178v9.237h2.26V4.35a3.35 3.35 0 00-3.349-3.349zm6.948 6.965v-4.42c0-.594.481-1.076 1.075-1.076h.029c.593 0 1.074.482 1.074 1.076V6.89c0 .594-.481 1.075-1.074 1.075H38.02zM39.11 1a3.348 3.348 0 00-3.348 3.349V18.67h2.26V9.434h1.103c.593 0 1.074.482 1.074 1.076v8.161h2.259v-8.205c0-.814-.391-1.536-.994-1.992a3.324 3.324 0 00.994-2.375V4.35c0-1.85-1.5-3.349-3.348-3.349zm-16.229.314a3.349 3.349 0 00-3.347 3.349v14.008h2.259V9.434h4.445v-1.47h-4.445v-4.09c0-.602.487-1.09 1.088-1.09h3.357v-1.47H22.88zM50.559 1c-.712 0-1.366.248-1.882.66a3.015 3.015 0 00-4.896 2.356V18.67h2.266V3.22a.749.749 0 111.497 0v15.45h2.266V3.22a.749.749 0 111.498 0v15.45h2.266V4.016A3.015 3.015 0 0050.559 1M15.895 8.519h-1.413V6.675a.706.706 0 111.413 0v1.844zm-.707-3.696a2.472 2.472 0 00-2.472 2.473v5.126a2.472 2.472 0 004.943.025h-1.764v.597a.706.706 0 11-1.413 0v-3.38h3.178V7.296a2.473 2.473 0 00-2.472-2.473zM4.064 1.977h-1.77v3.176H1v1.145h1.293v5.848a2.614 2.614 0 002.608 2.617h.714v-1.145h-.709a.849.849 0 01-.848-.848l.001-6.472h1.556V5.153H4.06l.004-3.176zm6.484 3.268a2.462 2.462 0 00-2.089-.318V1.442H6.694v13.321h1.765V6.675a.7.7 0 01.121-.395.705.705 0 011.292.395v8.088h1.765V7.296a2.466 2.466 0 00-1.09-2.05"/></svg>